<svg width="25" height="24" viewBox="0 0 25 24" fill="none" xmlns="http://www.w3.org/2000/svg">
<path fill-rule="evenodd" clip-rule="evenodd" d="M4.76731 23.6845C4.69075 23.7246 4.59719 23.7234 4.52184 23.6785C4.4465 23.6347 4.3991 23.5545 4.39667 23.467C4.36629 21.0038 4.55829 7.94509 11.7074 0.244277C11.852 0.0887296 12.0537 0 12.2652 0C12.4766 0.00121521 12.6796 0.0887296 12.823 0.244277C19.949 7.94995 20.1604 21.0013 20.1337 23.4658C20.1313 23.5533 20.0851 23.6335 20.0085 23.6785C19.9332 23.7222 19.8408 23.7247 19.7631 23.6833C18.4032 22.9688 13.6202 20.4545 12.5009 19.8663C12.3539 19.7886 12.1777 19.7886 12.0306 19.8663C10.9102 20.4545 6.12713 22.97 4.76731 23.6845ZM12.2664 9.9733C13.5946 9.9733 14.6713 11.05 14.6713 12.3794C14.6713 13.7077 13.5946 14.7843 12.2664 14.7843C10.9369 14.7843 9.86027 13.7077 9.86027 12.3794C9.86027 11.05 10.9369 9.9733 12.2664 9.9733Z" fill="#313131"/>
<path d="M4.91679 8.13225C5.00428 8.1201 5.09178 8.15411 5.14768 8.22216C5.20358 8.29021 5.22059 8.38259 5.19142 8.46644C4.75152 9.74241 4.34684 11.1581 4.00293 12.7233C3.98349 12.8132 3.91665 12.8861 3.82794 12.9117C3.74044 12.9384 3.64444 12.9153 3.57882 12.8509C2.88129 12.1704 1.2359 10.5675 0.27467 9.63058C0.136136 9.49569 0.0862927 9.29397 0.145838 9.11169C0.205384 8.92819 0.364591 8.79454 0.55538 8.76659C1.84594 8.57944 4.01388 8.2635 4.91679 8.13225Z" fill="#313131"/>
<path d="M23.9762 8.76659C24.167 8.79454 24.3262 8.92819 24.3857 9.11169C24.4453 9.29397 24.3955 9.49569 24.2569 9.63058C23.2957 10.5675 21.6515 12.1704 20.954 12.8497C20.8883 12.9141 20.7923 12.9384 20.7048 12.9117C20.6161 12.8849 20.5493 12.8132 20.5299 12.7233C20.1859 11.1581 19.7813 9.74241 19.3414 8.46644C19.3122 8.3838 19.3292 8.29021 19.3851 8.22216C19.441 8.15411 19.5285 8.12007 19.616 8.13344C20.5189 8.26468 22.6869 8.57944 23.9762 8.76659Z" fill="#313131"/>
</svg>
