<svg width="8" height="6" viewBox="0 0 8 6" fill="none" xmlns="http://www.w3.org/2000/svg">
<path d="M4.38329 4.85697L4.02974 5.21053L4.73684 5.91763L5.0904 5.56408L4.38329 4.85697ZM6.84211 3.10526L7.19566 3.45882L7.54921 3.10526L7.19566 2.75171L6.84211 3.10526ZM5.0904 0.646447L4.73684 0.292893L4.02974 1L4.38329 1.35355L5.0904 0.646447ZM4.73684 5.21053L5.0904 5.56408L7.19566 3.45882L6.84211 3.10526L6.48855 2.75171L4.38329 4.85697L4.73684 5.21053ZM6.84211 3.10526L7.19566 2.75171L5.0904 0.646447L4.73684 1L4.38329 1.35355L6.48855 3.45882L6.84211 3.10526ZM6.84211 3.10526V2.60526H0V3.10526V3.60526H6.84211V3.10526Z" fill="#111111"/>
</svg>
